<mxfile host="app.diagrams.net" modified="2020-10-15T14:13:12.703Z" agent="5.0 (Windows NT 10.0; Win64; x64) AppleWebKit/537.36 (KHTML, like Gecko) Chrome/85.0.4183.121 Safari/537.36" etag="br-A9159pEkCp9dDV5Tj" version="13.8.0" type="github">
  <diagram id="pnRXbSAsWbdZZA9hHzEn" name="Page-1">
    <mxGraphModel dx="1422" dy="772" grid="1" gridSize="10" guides="1" tooltips="1" connect="1" arrows="1" fold="1" page="1" pageScale="1" pageWidth="827" pageHeight="1169" math="0" shadow="0">
      <root>
        <mxCell id="0" />
        <mxCell id="1" parent="0" />
        <mxCell id="Aeb1J4XX-xa-QJd8k3CI-2" value="" style="rounded=0;whiteSpace=wrap;html=1;" parent="1" vertex="1">
          <mxGeometry x="41" y="60" width="740" height="370" as="geometry" />
        </mxCell>
        <mxCell id="Aeb1J4XX-xa-QJd8k3CI-3" value="" style="rounded=0;whiteSpace=wrap;html=1;" parent="1" vertex="1">
          <mxGeometry x="40" y="60" width="90" height="370" as="geometry" />
        </mxCell>
        <mxCell id="Aeb1J4XX-xa-QJd8k3CI-4" value="" style="rounded=0;whiteSpace=wrap;html=1;" parent="1" vertex="1">
          <mxGeometry x="125" y="250" width="10" height="161" as="geometry" />
        </mxCell>
        <mxCell id="Aeb1J4XX-xa-QJd8k3CI-7" value="" style="rounded=0;whiteSpace=wrap;html=1;" parent="1" vertex="1">
          <mxGeometry x="125" y="307" width="10" height="50" as="geometry" />
        </mxCell>
        <mxCell id="Aeb1J4XX-xa-QJd8k3CI-9" value="" style="rounded=0;whiteSpace=wrap;html=1;" parent="1" vertex="1">
          <mxGeometry x="40" y="60" width="270" height="160" as="geometry" />
        </mxCell>
        <mxCell id="Aeb1J4XX-xa-QJd8k3CI-10" value="" style="rounded=0;whiteSpace=wrap;html=1;" parent="1" vertex="1">
          <mxGeometry x="390" y="60" width="180" height="150" as="geometry" />
        </mxCell>
        <mxCell id="Aeb1J4XX-xa-QJd8k3CI-11" value="" style="rounded=0;whiteSpace=wrap;html=1;" parent="1" vertex="1">
          <mxGeometry x="310" y="60" width="80" height="100" as="geometry" />
        </mxCell>
        <mxCell id="Aeb1J4XX-xa-QJd8k3CI-18" value="&lt;font style=&quot;font-size: 18px&quot;&gt;&lt;b&gt;corridor&lt;/b&gt;&lt;/font&gt;" style="rounded=0;whiteSpace=wrap;html=1;" parent="1" vertex="1">
          <mxGeometry x="780" y="60" width="80" height="48" as="geometry" />
        </mxCell>
        <mxCell id="Aeb1J4XX-xa-QJd8k3CI-20" value="" style="rounded=0;whiteSpace=wrap;html=1;" parent="1" vertex="1">
          <mxGeometry x="631" y="290" width="150" height="140" as="geometry" />
        </mxCell>
        <mxCell id="Aeb1J4XX-xa-QJd8k3CI-21" value="" style="rounded=0;whiteSpace=wrap;html=1;" parent="1" vertex="1">
          <mxGeometry x="440" y="290" width="190" height="140" as="geometry" />
        </mxCell>
        <mxCell id="Aeb1J4XX-xa-QJd8k3CI-23" value="" style="verticalLabelPosition=bottom;html=1;verticalAlign=top;align=center;shape=mxgraph.floorplan.chair;shadow=0;fillColor=#FFFF33;" parent="1" vertex="1">
          <mxGeometry x="650" y="75" width="40" height="52" as="geometry" />
        </mxCell>
        <mxCell id="Aeb1J4XX-xa-QJd8k3CI-24" value="" style="verticalLabelPosition=bottom;html=1;verticalAlign=top;align=center;shape=mxgraph.floorplan.chair;shadow=0;direction=west;rotation=90;fillColor=#FFFF33;" parent="1" vertex="1">
          <mxGeometry x="624" y="168" width="40" height="52" as="geometry" />
        </mxCell>
        <mxCell id="Aeb1J4XX-xa-QJd8k3CI-25" value="" style="verticalLabelPosition=bottom;html=1;verticalAlign=top;align=center;shape=mxgraph.floorplan.chair;shadow=0;direction=north;fillColor=#FFFF33;" parent="1" vertex="1">
          <mxGeometry x="618" y="115" width="52" height="40" as="geometry" />
        </mxCell>
        <mxCell id="Aeb1J4XX-xa-QJd8k3CI-26" value="" style="verticalLabelPosition=bottom;html=1;verticalAlign=top;align=center;shape=mxgraph.floorplan.chair;shadow=0;direction=south;fillColor=#FFFF33;" parent="1" vertex="1">
          <mxGeometry x="671" y="175" width="52" height="40" as="geometry" />
        </mxCell>
        <mxCell id="Aeb1J4XX-xa-QJd8k3CI-27" value="" style="verticalLabelPosition=bottom;html=1;verticalAlign=top;align=center;shape=mxgraph.floorplan.chair;shadow=0;rotation=90;fillColor=#FFFF33;" parent="1" vertex="1">
          <mxGeometry x="677" y="111" width="40" height="52" as="geometry" />
        </mxCell>
        <mxCell id="Aeb1J4XX-xa-QJd8k3CI-28" value="" style="verticalLabelPosition=bottom;html=1;verticalAlign=top;align=center;shape=mxgraph.floorplan.chair;shadow=0;direction=west;fillColor=#FFFF33;" parent="1" vertex="1">
          <mxGeometry x="650" y="194" width="40" height="52" as="geometry" />
        </mxCell>
        <mxCell id="Aeb1J4XX-xa-QJd8k3CI-29" value="" style="shape=rect;shadow=0;rotation=90;fillColor=#99FFFF;" parent="1" vertex="1">
          <mxGeometry x="610" y="130" width="120" height="61" as="geometry" />
        </mxCell>
        <mxCell id="Aeb1J4XX-xa-QJd8k3CI-32" value="" style="verticalLabelPosition=bottom;html=1;verticalAlign=top;align=center;shape=mxgraph.floorplan.doorLeft;aspect=fixed;rotation=-180;fillColor=#663300;" parent="1" vertex="1">
          <mxGeometry x="277.06" y="185" width="32.94" height="35" as="geometry" />
        </mxCell>
        <mxCell id="Aeb1J4XX-xa-QJd8k3CI-33" value="" style="verticalLabelPosition=bottom;html=1;verticalAlign=top;align=center;shape=mxgraph.floorplan.doorLeft;aspect=fixed;rotation=-180;flipH=1;fillColor=#663300;" parent="1" vertex="1">
          <mxGeometry x="390" y="176.5" width="32.94" height="35" as="geometry" />
        </mxCell>
        <mxCell id="Aeb1J4XX-xa-QJd8k3CI-34" value="" style="verticalLabelPosition=bottom;html=1;verticalAlign=top;align=center;shape=mxgraph.floorplan.doorLeft;aspect=fixed;rotation=-90;flipH=0;flipV=1;fillColor=#663300;" parent="1" vertex="1">
          <mxGeometry x="357.06" y="125" width="32.94" height="35" as="geometry" />
        </mxCell>
        <mxCell id="Aeb1J4XX-xa-QJd8k3CI-36" value="" style="verticalLabelPosition=bottom;html=1;verticalAlign=top;align=center;shape=mxgraph.floorplan.sink_1;rotation=-90;fillColor=#FF6666;" parent="1" vertex="1">
          <mxGeometry x="312.5" y="137.5" width="20" height="20" as="geometry" />
        </mxCell>
        <mxCell id="Aeb1J4XX-xa-QJd8k3CI-37" value="" style="verticalLabelPosition=bottom;html=1;verticalAlign=top;align=center;shape=mxgraph.floorplan.toilet;rotation=-90;fillColor=#33FFFF;" parent="1" vertex="1">
          <mxGeometry x="315" y="98" width="17" height="26" as="geometry" />
        </mxCell>
        <mxCell id="Aeb1J4XX-xa-QJd8k3CI-38" value="" style="verticalLabelPosition=bottom;html=1;verticalAlign=top;align=center;shape=mxgraph.floorplan.doorLeft;aspect=fixed;rotation=90;flipH=0;flipV=1;fillColor=#663300;" parent="1" vertex="1">
          <mxGeometry x="440" y="290" width="32.94" height="35" as="geometry" />
        </mxCell>
        <mxCell id="Aeb1J4XX-xa-QJd8k3CI-39" value="" style="verticalLabelPosition=bottom;html=1;verticalAlign=top;align=center;shape=mxgraph.floorplan.bed_single;rotation=-90;fillColor=#FF66FF;" parent="1" vertex="1">
          <mxGeometry x="468.5" y="336.5" width="65" height="120" as="geometry" />
        </mxCell>
        <mxCell id="Aeb1J4XX-xa-QJd8k3CI-40" value="" style="verticalLabelPosition=bottom;html=1;verticalAlign=top;align=center;shape=mxgraph.floorplan.doorLeft;aspect=fixed;rotation=0;flipH=1;fillColor=#663300;" parent="1" vertex="1">
          <mxGeometry x="747.06" y="62" width="32.94" height="35" as="geometry" />
        </mxCell>
        <mxCell id="Aeb1J4XX-xa-QJd8k3CI-41" value="" style="verticalLabelPosition=bottom;html=1;verticalAlign=top;align=center;shape=mxgraph.floorplan.doorLeft;aspect=fixed;rotation=0;flipH=0;flipV=0;fillColor=#663300;" parent="1" vertex="1">
          <mxGeometry x="860" y="61.5" width="32.94" height="35" as="geometry" />
        </mxCell>
        <mxCell id="Aeb1J4XX-xa-QJd8k3CI-54" value="" style="group;fillColor=#994C00;" parent="1" vertex="1" connectable="0">
          <mxGeometry x="190" y="391" width="190" height="39" as="geometry" />
        </mxCell>
        <mxCell id="Aeb1J4XX-xa-QJd8k3CI-45" value="" style="verticalLabelPosition=bottom;html=1;verticalAlign=top;align=center;shape=mxgraph.floorplan.couch;rotation=-180;fillColor=#994C00;" parent="Aeb1J4XX-xa-QJd8k3CI-54" vertex="1">
          <mxGeometry width="130" height="39" as="geometry" />
        </mxCell>
        <mxCell id="Aeb1J4XX-xa-QJd8k3CI-46" value="" style="verticalLabelPosition=bottom;html=1;verticalAlign=top;align=center;shape=mxgraph.floorplan.couch;rotation=-180;fillColor=#994C00;" parent="Aeb1J4XX-xa-QJd8k3CI-54" vertex="1">
          <mxGeometry x="60" width="130" height="39" as="geometry" />
        </mxCell>
        <mxCell id="Aeb1J4XX-xa-QJd8k3CI-57" value="" style="verticalLabelPosition=bottom;html=1;verticalAlign=top;align=center;shape=mxgraph.floorplan.bed_double;fillColor=#B266FF;" parent="1" vertex="1">
          <mxGeometry x="109.5" y="61" width="131" height="119" as="geometry" />
        </mxCell>
        <mxCell id="Aeb1J4XX-xa-QJd8k3CI-58" value="" style="verticalLabelPosition=bottom;html=1;verticalAlign=top;align=center;shape=mxgraph.floorplan.wall;fillColor=#FFE599;direction=south;" parent="1" vertex="1">
          <mxGeometry x="275" y="61" width="58" height="110" as="geometry" />
        </mxCell>
        <mxCell id="Aeb1J4XX-xa-QJd8k3CI-60" value="" style="verticalLabelPosition=bottom;html=1;verticalAlign=top;align=center;shape=mxgraph.floorplan.water_cooler;fillColor=#99CCFF;" parent="1" vertex="1">
          <mxGeometry x="394" y="377" width="40" height="40" as="geometry" />
        </mxCell>
        <mxCell id="Aeb1J4XX-xa-QJd8k3CI-61" value="" style="verticalLabelPosition=bottom;html=1;verticalAlign=top;align=center;shape=mxgraph.floorplan.sink_double;rotation=-180;fillColor=#E6E6E6;" parent="1" vertex="1">
          <mxGeometry x="671" y="400.75" width="58.83" height="29" as="geometry" />
        </mxCell>
        <mxCell id="Aeb1J4XX-xa-QJd8k3CI-65" value="" style="verticalLabelPosition=bottom;html=1;verticalAlign=top;align=center;shape=mxgraph.floorplan.chair;shadow=1;direction=west;rotation=0;fillColor=#FF0000;" parent="1" vertex="1">
          <mxGeometry x="555" y="292.5" width="30" height="33" as="geometry" />
        </mxCell>
        <mxCell id="Aeb1J4XX-xa-QJd8k3CI-62" value="" style="rounded=0;whiteSpace=wrap;html=1;shadow=1;fillColor=#FF66FF;" parent="1" vertex="1">
          <mxGeometry x="504" y="291" width="106" height="20" as="geometry" />
        </mxCell>
        <mxCell id="Aeb1J4XX-xa-QJd8k3CI-66" value="" style="verticalLabelPosition=bottom;html=1;verticalAlign=top;align=center;shape=mxgraph.floorplan.bed_single;rotation=90;fillColor=#F19C99;" parent="1" vertex="1">
          <mxGeometry x="488.5" y="77.5" width="55" height="105" as="geometry" />
        </mxCell>
        <mxCell id="Aeb1J4XX-xa-QJd8k3CI-68" value="&lt;font style=&quot;font-size: 18px&quot;&gt;bedroom&lt;/font&gt;" style="text;html=1;align=center;verticalAlign=middle;resizable=0;points=[];autosize=1;fontStyle=1" parent="1" vertex="1">
          <mxGeometry x="125" y="157.5" width="100" height="20" as="geometry" />
        </mxCell>
        <mxCell id="Aeb1J4XX-xa-QJd8k3CI-69" value="&lt;font style=&quot;font-size: 12px&quot;&gt;bathroom&lt;/font&gt;" style="text;html=1;align=center;verticalAlign=middle;resizable=0;points=[];autosize=1;fontStyle=1;rotation=-30;" parent="1" vertex="1">
          <mxGeometry x="315" y="107" width="70" height="20" as="geometry" />
        </mxCell>
        <mxCell id="Aeb1J4XX-xa-QJd8k3CI-70" value="&lt;font style=&quot;font-size: 18px&quot;&gt;dining&amp;nbsp; &amp;nbsp;room&lt;/font&gt;" style="text;html=1;align=center;verticalAlign=middle;resizable=0;points=[];autosize=1;fontStyle=1;rotation=-90;" parent="1" vertex="1">
          <mxGeometry x="677.0000000000001" y="157.5" width="130" height="20" as="geometry" />
        </mxCell>
        <mxCell id="Aeb1J4XX-xa-QJd8k3CI-71" value="&lt;font style=&quot;font-size: 18px&quot;&gt;living&amp;nbsp; room&lt;/font&gt;" style="text;html=1;align=center;verticalAlign=middle;resizable=0;points=[];autosize=1;fontStyle=1" parent="1" vertex="1">
          <mxGeometry x="165.44" y="281" width="120" height="20" as="geometry" />
        </mxCell>
        <mxCell id="Aeb1J4XX-xa-QJd8k3CI-72" value="&lt;font style=&quot;font-size: 18px&quot;&gt;study&lt;/font&gt;" style="text;html=1;align=center;verticalAlign=middle;resizable=0;points=[];autosize=1;fontStyle=1" parent="1" vertex="1">
          <mxGeometry x="519" y="337.5" width="60" height="20" as="geometry" />
        </mxCell>
        <mxCell id="Aeb1J4XX-xa-QJd8k3CI-73" value="&lt;font style=&quot;font-size: 18px&quot;&gt;kitchen&lt;/font&gt;" style="text;html=1;align=center;verticalAlign=middle;resizable=0;points=[];autosize=1;fontStyle=1" parent="1" vertex="1">
          <mxGeometry x="684.9999999999999" y="360" width="80" height="20" as="geometry" />
        </mxCell>
        <mxCell id="Aeb1J4XX-xa-QJd8k3CI-74" value="&lt;font style=&quot;font-size: 18px&quot;&gt;bedroom&lt;/font&gt;" style="text;html=1;align=center;verticalAlign=middle;resizable=0;points=[];autosize=1;fontStyle=1" parent="1" vertex="1">
          <mxGeometry x="451" y="78" width="100" height="20" as="geometry" />
        </mxCell>
        <mxCell id="Aeb1J4XX-xa-QJd8k3CI-77" value="&lt;font style=&quot;font-size: 18px&quot;&gt;veranda&lt;/font&gt;" style="text;html=1;align=center;verticalAlign=middle;resizable=0;points=[];autosize=1;fontStyle=1;flipV=1;flipH=1;rotation=-90;" parent="1" vertex="1">
          <mxGeometry x="30" y="371" width="90" height="20" as="geometry" />
        </mxCell>
        <mxCell id="Aeb1J4XX-xa-QJd8k3CI-79" value="&lt;b&gt;&lt;font style=&quot;font-size: 18px&quot;&gt;long&amp;nbsp; corridor&lt;/font&gt;&lt;/b&gt;" style="text;html=1;align=center;verticalAlign=middle;resizable=0;points=[];autosize=1;" parent="1" vertex="1">
          <mxGeometry x="434" y="235" width="130" height="20" as="geometry" />
        </mxCell>
        <mxCell id="Aeb1J4XX-xa-QJd8k3CI-81" value="" style="verticalLabelPosition=bottom;html=1;verticalAlign=top;align=center;shape=mxgraph.floorplan.plant;shadow=1;fillColor=#FF66FF;" parent="1" vertex="1">
          <mxGeometry x="41" y="220" width="29" height="40" as="geometry" />
        </mxCell>
        <mxCell id="Aeb1J4XX-xa-QJd8k3CI-86" value="" style="verticalLabelPosition=bottom;html=1;verticalAlign=top;align=center;shape=mxgraph.floorplan.bathtub;shadow=1;strokeColor=#FFFFFF;fillColor=#F19C99;" parent="1" vertex="1">
          <mxGeometry x="347" y="62" width="40" height="20" as="geometry" />
        </mxCell>
        <mxCell id="Aeb1J4XX-xa-QJd8k3CI-87" value="" style="verticalLabelPosition=bottom;html=1;verticalAlign=top;align=center;shape=mxgraph.floorplan.wall;fillColor=#FFF2CC;direction=south;rotation=90;" parent="1" vertex="1">
          <mxGeometry x="485.5" y="150" width="58" height="110" as="geometry" />
        </mxCell>
        <mxCell id="Aeb1J4XX-xa-QJd8k3CI-88" value="" style="triangle;whiteSpace=wrap;html=1;shadow=1;strokeColor=#FFFFFF;fillColor=#E6E6E6;rotation=-90;" parent="1" vertex="1">
          <mxGeometry x="182.13" y="360" width="120.5" height="390" as="geometry" />
        </mxCell>
        <mxCell id="Aeb1J4XX-xa-QJd8k3CI-89" value="" style="rounded=0;whiteSpace=wrap;html=1;shadow=1;strokeColor=#FFFFFF;fillColor=#E6E6E6;" parent="1" vertex="1">
          <mxGeometry x="50.75" y="753" width="383.25" height="177" as="geometry" />
        </mxCell>
        <mxCell id="Aeb1J4XX-xa-QJd8k3CI-90" value="" style="rounded=0;whiteSpace=wrap;html=1;shadow=1;strokeColor=#FFFFFF;fillColor=#E6E6E6;" parent="1" vertex="1">
          <mxGeometry x="50.75" y="930" width="383.25" height="202" as="geometry" />
        </mxCell>
        <mxCell id="Aeb1J4XX-xa-QJd8k3CI-91" value="" style="rounded=0;whiteSpace=wrap;html=1;shadow=1;strokeColor=#FFFFFF;fillColor=#E6E6E6;" parent="1" vertex="1">
          <mxGeometry x="50.75" y="619" width="383.25" height="131" as="geometry" />
        </mxCell>
        <mxCell id="Aeb1J4XX-xa-QJd8k3CI-99" value="" style="verticalLabelPosition=bottom;html=1;verticalAlign=top;align=center;shape=mxgraph.floorplan.bed_double;shadow=0;strokeColor=#FFFFFF;fillColor=#99FF33;rotation=-90;" parent="1" vertex="1">
          <mxGeometry x="49.5" y="629.5" width="120" height="110" as="geometry" />
        </mxCell>
        <mxCell id="Aeb1J4XX-xa-QJd8k3CI-93" value="Actor" style="shape=umlActor;verticalLabelPosition=bottom;labelBackgroundColor=#ffffff;verticalAlign=top;html=1;outlineConnect=0;shadow=1;strokeColor=#FFFFFF;fillColor=#E6E6E6;rotation=-90;" parent="1" vertex="1">
          <mxGeometry x="67.94" y="663.5" width="39" height="47" as="geometry" />
        </mxCell>
        <mxCell id="Aeb1J4XX-xa-QJd8k3CI-101" value="Actor" style="shape=umlActor;verticalLabelPosition=bottom;labelBackgroundColor=#ffffff;verticalAlign=top;html=1;outlineConnect=0;shadow=1;strokeColor=#FFFFFF;fillColor=#E6E6E6;rotation=-90;" parent="1" vertex="1">
          <mxGeometry x="67.94" y="641.5" width="39" height="47" as="geometry" />
        </mxCell>
        <mxCell id="Aeb1J4XX-xa-QJd8k3CI-102" value="" style="verticalLabelPosition=bottom;html=1;verticalAlign=top;align=center;shape=mxgraph.floorplan.flat_tv;shadow=0;strokeColor=#FFFFFF;fillColor=#99FF33;rotation=90;" parent="1" vertex="1">
          <mxGeometry x="335.5" y="666.5" width="70" height="10" as="geometry" />
        </mxCell>
        <mxCell id="Aeb1J4XX-xa-QJd8k3CI-103" value="" style="verticalLabelPosition=bottom;html=1;verticalAlign=top;align=center;shape=mxgraph.floorplan.plant;shadow=0;strokeColor=#FFFFFF;fillColor=#FF99FF;" parent="1" vertex="1">
          <mxGeometry x="384" y="770" width="47" height="51" as="geometry" />
        </mxCell>
        <mxCell id="Aeb1J4XX-xa-QJd8k3CI-104" value="" style="verticalLabelPosition=bottom;html=1;verticalAlign=top;align=center;shape=mxgraph.floorplan.plant;shadow=0;strokeColor=#FFFFFF;fillColor=#FF99FF;" parent="1" vertex="1">
          <mxGeometry x="384.05999999999995" y="821" width="47" height="51" as="geometry" />
        </mxCell>
        <mxCell id="Aeb1J4XX-xa-QJd8k3CI-105" value="" style="verticalLabelPosition=bottom;html=1;verticalAlign=top;align=center;shape=mxgraph.floorplan.plant;shadow=0;strokeColor=#FFFFFF;fillColor=#FF99FF;" parent="1" vertex="1">
          <mxGeometry x="384" y="879" width="47" height="51" as="geometry" />
        </mxCell>
        <mxCell id="Aeb1J4XX-xa-QJd8k3CI-108" value="" style="verticalLabelPosition=bottom;html=1;verticalAlign=top;align=center;shape=mxgraph.floorplan.bed_double;shadow=0;strokeColor=#FFFFFF;fillColor=#FF99FF;rotation=-90;" parent="1" vertex="1">
          <mxGeometry x="63.94" y="770" width="100" height="115.5" as="geometry" />
        </mxCell>
        <mxCell id="Aeb1J4XX-xa-QJd8k3CI-109" value="" style="verticalLabelPosition=bottom;html=1;verticalAlign=top;align=center;shape=mxgraph.floorplan.flat_tv;shadow=0;strokeColor=#FFFFFF;fillColor=#FF99FF;rotation=90;" parent="1" vertex="1">
          <mxGeometry x="334" y="835" width="70" height="10" as="geometry" />
        </mxCell>
        <mxCell id="Aeb1J4XX-xa-QJd8k3CI-106" value="&lt;span style=&quot;color: rgba(0 , 0 , 0 , 0) ; font-family: monospace ; font-size: 0px ; background-color: rgb(248 , 249 , 250)&quot;&gt;%3CmxGraphModel%3E%3Croot%3E%3CmxCell%20id%3D%220%22%2F%3E%3CmxCell%20id%3D%221%22%20parent%3D%220%22%2F%3E%3CmxCell%20id%3D%222%22%20value%3D%22Actor%22%20style%3D%22shape%3DumlActor%3BverticalLabelPosition%3Dbottom%3BlabelBackgroundColor%3D%23ffffff%3BverticalAlign%3Dtop%3Bhtml%3D1%3BoutlineConnect%3D0%3Bshadow%3D1%3BstrokeColor%3D%23FFFFFF%3BfillColor%3D%23E6E6E6%3Brotation%3D-90%3B%22%20vertex%3D%221%22%20parent%3D%221%22%3E%3CmxGeometry%20x%3D%22393.94%22%20y%3D%22619.5%22%20width%3D%2239%22%20height%3D%2247%22%20as%3D%22geometry%22%2F%3E%3C%2FmxCell%3E%3C%2Froot%3E%3C%2FmxGraphModel%3E&lt;/span&gt;&lt;span style=&quot;color: rgba(0 , 0 , 0 , 0) ; font-family: monospace ; font-size: 0px ; background-color: rgb(248 , 249 , 250)&quot;&gt;%3CmxGraphModel%3E%3Croot%3E%3CmxCell%20id%3D%220%22%2F%3E%3CmxCell%20id%3D%221%22%20parent%3D%220%22%2F%3E%3CmxCell%20id%3D%222%22%20value%3D%22Actor%22%20style%3D%22shape%3DumlActor%3BverticalLabelPosition%3Dbottom%3BlabelBackgroundColor%3D%23ffffff%3BverticalAlign%3Dtop%3Bhtml%3D1%3BoutlineConnect%3D0%3Bshadow%3D1%3BstrokeColor%3D%23FFFFFF%3BfillColor%3D%23E6E6E6%3Brotation%3D-90%3B%22%20vertex%3D%221%22%20parent%3D%221%22%3E%3CmxGeometry%20x%3D%22393.94%22%20y%3D%22619.5%22%20width%3D%2239%22%20height%3D%2247%22%20as%3D%22geometry%22%2F%3E%3C%2FmxCell%3E%3C%2Froot%3E%3C%2FmxGraphModel%3E&lt;/span&gt;&lt;span style=&quot;color: rgba(0 , 0 , 0 , 0) ; font-family: monospace ; font-size: 0px ; background-color: rgb(248 , 249 , 250)&quot;&gt;%3CmxGraphModel%3E%3Croot%3E%3CmxCell%20id%3D%220%22%2F%3E%3CmxCell%20id%3D%221%22%20parent%3D%220%22%2F%3E%3CmxCell%20id%3D%222%22%20value%3D%22Actor%22%20style%3D%22shape%3DumlActor%3BverticalLabelPosition%3Dbottom%3BlabelBackgroundColor%3D%23ffffff%3BverticalAlign%3Dtop%3Bhtml%3D1%3BoutlineConnect%3D0%3Bshadow%3D1%3BstrokeColor%3D%23FFFFFF%3BfillColor%3D%23E6E6E6%3Brotation%3D-90%3B%22%20vertex%3D%221%22%20parent%3D%221%22%3E%3CmxGeometry%20x%3D%22393.94%22%20y%3D%22619.5%22%20width%3D%2239%22%20height%3D%2247%22%20as%3D%22geometry%22%2F%3E%3C%2FmxCell%3E%3C%2Froot%3E%3C%2FmxGraphModel%3E&lt;/span&gt;" style="shape=umlActor;verticalLabelPosition=bottom;labelBackgroundColor=#ffffff;verticalAlign=top;html=1;outlineConnect=0;shadow=1;strokeColor=#FFFFFF;fillColor=#E6E6E6;rotation=-90;" parent="1" vertex="1">
          <mxGeometry x="67.94" y="804" width="39" height="47" as="geometry" />
        </mxCell>
        <mxCell id="Aeb1J4XX-xa-QJd8k3CI-107" value="" style="shape=umlActor;verticalLabelPosition=bottom;labelBackgroundColor=#ffffff;verticalAlign=top;html=1;outlineConnect=0;shadow=1;strokeColor=#FFFFFF;fillColor=#E6E6E6;rotation=-90;" parent="1" vertex="1">
          <mxGeometry x="70" y="824" width="39" height="47" as="geometry" />
        </mxCell>
        <mxCell id="Aeb1J4XX-xa-QJd8k3CI-113" value="" style="verticalLabelPosition=bottom;html=1;verticalAlign=top;align=center;shape=mxgraph.floorplan.bed_double;shadow=0;strokeColor=#FFFFFF;fillColor=#FF3333;rotation=-90;" parent="1" vertex="1">
          <mxGeometry x="51.5" y="960" width="123.5" height="120" as="geometry" />
        </mxCell>
        <mxCell id="Aeb1J4XX-xa-QJd8k3CI-114" value="" style="shape=umlActor;verticalLabelPosition=bottom;labelBackgroundColor=#ffffff;verticalAlign=top;html=1;outlineConnect=0;shadow=1;strokeColor=#FFFFFF;fillColor=#E6E6E6;rotation=-90;" parent="1" vertex="1">
          <mxGeometry x="65" y="1013" width="39" height="47" as="geometry" />
        </mxCell>
        <mxCell id="Aeb1J4XX-xa-QJd8k3CI-115" value="" style="shape=umlActor;verticalLabelPosition=bottom;labelBackgroundColor=#ffffff;verticalAlign=top;html=1;outlineConnect=0;shadow=1;strokeColor=#FFFFFF;fillColor=#E6E6E6;rotation=-90;" parent="1" vertex="1">
          <mxGeometry x="64.94" y="987" width="39" height="47" as="geometry" />
        </mxCell>
        <mxCell id="Aeb1J4XX-xa-QJd8k3CI-116" value="" style="verticalLabelPosition=bottom;html=1;verticalAlign=top;align=center;shape=mxgraph.floorplan.flat_tv;shadow=0;strokeColor=#FFFFFF;fillColor=#FF3333;rotation=90;" parent="1" vertex="1">
          <mxGeometry x="331" y="1014" width="70" height="10" as="geometry" />
        </mxCell>
        <mxCell id="Aeb1J4XX-xa-QJd8k3CI-117" value="" style="verticalLabelPosition=bottom;html=1;verticalAlign=top;align=center;shape=mxgraph.floorplan.plant;shadow=0;strokeColor=#FFFFFF;fillColor=#FF3333;" parent="1" vertex="1">
          <mxGeometry x="384.05999999999995" y="1030" width="47" height="51" as="geometry" />
        </mxCell>
        <mxCell id="Aeb1J4XX-xa-QJd8k3CI-118" value="" style="verticalLabelPosition=bottom;html=1;verticalAlign=top;align=center;shape=mxgraph.floorplan.plant;shadow=0;strokeColor=#FFFFFF;fillColor=#FF3333;" parent="1" vertex="1">
          <mxGeometry x="383" y="985" width="47" height="51" as="geometry" />
        </mxCell>
        <mxCell id="Aeb1J4XX-xa-QJd8k3CI-119" value="" style="verticalLabelPosition=bottom;html=1;verticalAlign=top;align=center;shape=mxgraph.floorplan.plant;shadow=0;strokeColor=#FFFFFF;fillColor=#FF3333;" parent="1" vertex="1">
          <mxGeometry x="384" y="937" width="47" height="51" as="geometry" />
        </mxCell>
        <mxCell id="Aeb1J4XX-xa-QJd8k3CI-120" value="" style="verticalLabelPosition=bottom;html=1;verticalAlign=top;align=center;shape=mxgraph.floorplan.plant;shadow=0;strokeColor=#FFFFFF;fillColor=#FF3333;" parent="1" vertex="1">
          <mxGeometry x="384" y="1075" width="47" height="51" as="geometry" />
        </mxCell>
        <mxCell id="Aeb1J4XX-xa-QJd8k3CI-121" value="" style="verticalLabelPosition=bottom;html=1;verticalAlign=top;align=center;shape=mxgraph.floorplan.plant;shadow=0;strokeColor=#FFFFFF;fillColor=#99FF33;" parent="1" vertex="1">
          <mxGeometry x="384" y="655" width="40" height="45" as="geometry" />
        </mxCell>
        <mxCell id="Aeb1J4XX-xa-QJd8k3CI-122" value="&lt;span style=&quot;color: rgba(0 , 0 , 0 , 0) ; font-family: monospace ; font-size: 0px&quot;&gt;%3CmxGraphModel%3E%3Croot%3E%3CmxCell%20id%3D%220%22%2F%3E%3CmxCell%20id%3D%221%22%20parent%3D%220%22%2F%3E%3CmxCell%20id%3D%222%22%20value%3D%22%22%20style%3D%22verticalLabelPosition%3Dbottom%3Bhtml%3D1%3BverticalAlign%3Dtop%3Balign%3Dcenter%3Bshape%3Dmxgraph.floorplan.plant%3Bshadow%3D0%3BstrokeColor%3D%23FFFFFF%3BfillColor%3D%23FF3333%3B%22%20vertex%3D%221%22%20parent%3D%221%22%3E%3CmxGeometry%20x%3D%22570.5%22%20y%3D%22649%22%20width%3D%2247%22%20height%3D%2251%22%20as%3D%22geometry%22%2F%3E%3C%2FmxCell%3E%3C%2Froot%3E%3C%2FmxGraphModel%3E&lt;/span&gt;" style="verticalLabelPosition=bottom;html=1;verticalAlign=top;align=center;shape=mxgraph.floorplan.plant;shadow=0;strokeColor=#FFFFFF;fillColor=#99FF33;" parent="1" vertex="1">
          <mxGeometry x="383" y="615.5" width="41" height="44.5" as="geometry" />
        </mxCell>
        <mxCell id="Aeb1J4XX-xa-QJd8k3CI-123" value="&lt;span style=&quot;color: rgba(0 , 0 , 0 , 0) ; font-family: monospace ; font-size: 0px&quot;&gt;V&lt;/span&gt;&lt;span style=&quot;color: rgba(0 , 0 , 0 , 0) ; font-family: monospace ; font-size: 0px&quot;&gt;%3CmxGraphModel%3E%3Croot%3E%3CmxCell%20id%3D%220%22%2F%3E%3CmxCell%20id%3D%221%22%20parent%3D%220%22%2F%3E%3CmxCell%20id%3D%222%22%20value%3D%22%26lt%3Bspan%20style%3D%26quot%3Bcolor%3A%20rgba(0%20%2C%200%20%2C%200%20%2C%200)%20%3B%20font-family%3A%20monospace%20%3B%20font-size%3A%200px%26quot%3B%26gt%3B%253CmxGraphModel%253E%253Croot%253E%253CmxCell%2520id%253D%25220%2522%252F%253E%253CmxCell%2520id%253D%25221%2522%2520parent%253D%25220%2522%252F%253E%253CmxCell%2520id%253D%25222%2522%2520value%253D%2522%2522%2520style%253D%2522verticalLabelPosition%253Dbottom%253Bhtml%253D1%253BverticalAlign%253Dtop%253Balign%253Dcenter%253Bshape%253Dmxgraph.floorplan.plant%253Bshadow%253D0%253BstrokeColor%253D%2523FFFFFF%253BfillColor%253D%2523FF3333%253B%2522%2520vertex%253D%25221%2522%2520parent%253D%25221%2522%253E%253CmxGeometry%2520x%253D%2522570.5%2522%2520y%253D%2522649%2522%2520width%253D%252247%2522%2520height%253D%252251%2522%2520as%253D%2522geometry%2522%252F%253E%253C%252FmxCell%253E%253C%252Froot%253E%253C%252FmxGraphModel%253E%26lt%3B%2Fspan%26gt%3B%22%20style%3D%22verticalLabelPosition%3Dbottom%3Bhtml%3D1%3BverticalAlign%3Dtop%3Balign%3Dcenter%3Bshape%3Dmxgraph.floorplan.plant%3Bshadow%3D0%3BstrokeColor%3D%23FFFFFF%3BfillColor%3D%23FF3333%3B%22%20vertex%3D%221%22%20parent%3D%221%22%3E%3CmxGeometry%20x%3D%22580.5%22%20y%3D%22659%22%20width%3D%2247%22%20height%3D%2251%22%20as%3D%22geometry%22%2F%3E%3C%2FmxCell%3E%3C%2Froot%3E%3C%2FmxGraphModel%3E&lt;/span&gt;" style="verticalLabelPosition=bottom;html=1;verticalAlign=top;align=center;shape=mxgraph.floorplan.plant;shadow=0;strokeColor=#FFFFFF;fillColor=#99FF33;" parent="1" vertex="1">
          <mxGeometry x="384" y="696" width="40" height="47" as="geometry" />
        </mxCell>
        <mxCell id="Aeb1J4XX-xa-QJd8k3CI-124" value="" style="verticalLabelPosition=bottom;html=1;verticalAlign=top;align=center;shape=mxgraph.floorplan.flat_tv;shadow=0;strokeColor=#FFFFFF;fillColor=#000000;" parent="1" vertex="1">
          <mxGeometry x="147.63" y="220.17" width="155" height="10" as="geometry" />
        </mxCell>
        <mxCell id="Aeb1J4XX-xa-QJd8k3CI-125" value="" style="verticalLabelPosition=bottom;html=1;verticalAlign=top;align=center;shape=mxgraph.floorplan.chair;shadow=0;strokeColor=#FFFFFF;fillColor=#FF99FF;rotation=-90;" parent="1" vertex="1">
          <mxGeometry x="196" y="829" width="41" height="52" as="geometry" />
        </mxCell>
        <mxCell id="Aeb1J4XX-xa-QJd8k3CI-127" value="" style="verticalLabelPosition=bottom;html=1;verticalAlign=top;align=center;shape=mxgraph.floorplan.chair;shadow=0;strokeColor=#FFFFFF;fillColor=#FF99FF;rotation=-90;" parent="1" vertex="1">
          <mxGeometry x="196" y="791" width="41" height="52" as="geometry" />
        </mxCell>
        <mxCell id="Aeb1J4XX-xa-QJd8k3CI-128" value="" style="verticalLabelPosition=bottom;html=1;verticalAlign=top;align=center;shape=mxgraph.floorplan.table;shadow=0;strokeColor=#FFFFFF;fillColor=#FF99FF;rotation=-90;" parent="1" vertex="1">
          <mxGeometry x="187.97000000000003" y="800.79" width="106.62" height="65.81" as="geometry" />
        </mxCell>
        <mxCell id="Aeb1J4XX-xa-QJd8k3CI-131" value="" style="verticalLabelPosition=bottom;html=1;verticalAlign=top;align=center;shape=mxgraph.floorplan.chair;shadow=0;strokeColor=#FFFFFF;fillColor=#FF3333;rotation=-90;" parent="1" vertex="1">
          <mxGeometry x="196.97000000000003" y="1005" width="41" height="52" as="geometry" />
        </mxCell>
        <mxCell id="Aeb1J4XX-xa-QJd8k3CI-132" value="" style="verticalLabelPosition=bottom;html=1;verticalAlign=top;align=center;shape=mxgraph.floorplan.chair;shadow=0;strokeColor=#FFFFFF;fillColor=#FF3333;rotation=-90;" parent="1" vertex="1">
          <mxGeometry x="196.5" y="961" width="41" height="52" as="geometry" />
        </mxCell>
        <mxCell id="Aeb1J4XX-xa-QJd8k3CI-133" value="" style="verticalLabelPosition=bottom;html=1;verticalAlign=top;align=center;shape=mxgraph.floorplan.chair;shadow=0;strokeColor=#FFFFFF;fillColor=#99FF33;rotation=-90;" parent="1" vertex="1">
          <mxGeometry x="213" y="629.5" width="41" height="52" as="geometry" />
        </mxCell>
        <mxCell id="Aeb1J4XX-xa-QJd8k3CI-134" value="" style="verticalLabelPosition=bottom;html=1;verticalAlign=top;align=center;shape=mxgraph.floorplan.chair;shadow=0;strokeColor=#FFFFFF;fillColor=#99FF33;rotation=-90;" parent="1" vertex="1">
          <mxGeometry x="212" y="670" width="41" height="52" as="geometry" />
        </mxCell>
        <mxCell id="Aeb1J4XX-xa-QJd8k3CI-130" value="" style="verticalLabelPosition=bottom;html=1;verticalAlign=top;align=center;shape=mxgraph.floorplan.table;shadow=0;strokeColor=#FFFFFF;fillColor=#99FF33;rotation=-90;" parent="1" vertex="1">
          <mxGeometry x="205" y="644.6" width="106.62" height="65.81" as="geometry" />
        </mxCell>
        <mxCell id="Aeb1J4XX-xa-QJd8k3CI-129" value="" style="verticalLabelPosition=bottom;html=1;verticalAlign=top;align=center;shape=mxgraph.floorplan.table;shadow=0;strokeColor=#FFFFFF;fillColor=#FF3333;rotation=-90;" parent="1" vertex="1">
          <mxGeometry x="189.69000000000005" y="977.5999999999999" width="106.62" height="65.81" as="geometry" />
        </mxCell>
        <mxCell id="Aeb1J4XX-xa-QJd8k3CI-135" value="Design by Wendy&amp;nbsp;" style="text;html=1;align=center;verticalAlign=middle;resizable=0;points=[];autosize=1;fontSize=20;" parent="1" vertex="1">
          <mxGeometry x="371.19" y="456.5" width="110" height="20" as="geometry" />
        </mxCell>
        <mxCell id="Aeb1J4XX-xa-QJd8k3CI-138" value="-&amp;nbsp; 25.2.2020 -" style="text;html=1;align=center;verticalAlign=middle;resizable=0;points=[];autosize=1;" parent="1" vertex="1">
          <mxGeometry x="525" y="470" width="90" height="20" as="geometry" />
        </mxCell>
        <mxCell id="Aeb1J4XX-xa-QJd8k3CI-139" value="" style="verticalLabelPosition=bottom;html=1;verticalAlign=top;align=center;shape=mxgraph.floorplan.table;shadow=0;strokeColor=#FFFFFF;fillColor=#FFB366;" parent="1" vertex="1">
          <mxGeometry x="223" y="307" width="124" height="53" as="geometry" />
        </mxCell>
        <mxCell id="zgsh-HRRBRmctU79bV9W-19" value="" style="points=[];aspect=fixed;html=1;align=center;shadow=0;dashed=0;image;image=img/lib/allied_telesis/computer_and_terminals/Laptop.svg;rotation=-30;" parent="1" vertex="1">
          <mxGeometry x="502.83" y="287.32" width="23.41" height="23.75" as="geometry" />
        </mxCell>
        <mxCell id="Vu0no6PkMsiXkVen8RK5-13" value="" style="rounded=0;whiteSpace=wrap;html=1;fillColor=#FFFFFF;" vertex="1" parent="1">
          <mxGeometry x="555" y="580" width="240" height="170" as="geometry" />
        </mxCell>
        <mxCell id="Vu0no6PkMsiXkVen8RK5-14" value="" style="endArrow=none;html=1;" edge="1" parent="1">
          <mxGeometry width="50" height="50" relative="1" as="geometry">
            <mxPoint x="615" y="750" as="sourcePoint" />
            <mxPoint x="615" y="580" as="targetPoint" />
            <Array as="points" />
          </mxGeometry>
        </mxCell>
        <mxCell id="Vu0no6PkMsiXkVen8RK5-15" value="一面不透明的墙" style="edgeLabel;html=1;align=center;verticalAlign=middle;resizable=0;points=[];" vertex="1" connectable="0" parent="Vu0no6PkMsiXkVen8RK5-14">
          <mxGeometry x="0.1294" y="1" relative="1" as="geometry">
            <mxPoint as="offset" />
          </mxGeometry>
        </mxCell>
        <mxCell id="Vu0no6PkMsiXkVen8RK5-16" value="" style="rounded=0;whiteSpace=wrap;html=1;" vertex="1" parent="1">
          <mxGeometry x="685" y="720" width="50" height="30" as="geometry" />
        </mxCell>
        <mxCell id="Vu0no6PkMsiXkVen8RK5-17" value="" style="rounded=0;whiteSpace=wrap;html=1;" vertex="1" parent="1">
          <mxGeometry x="735" y="690" width="60" height="60" as="geometry" />
        </mxCell>
        <mxCell id="Vu0no6PkMsiXkVen8RK5-18" value="A" style="shape=umlActor;verticalLabelPosition=bottom;verticalAlign=top;html=1;outlineConnect=0;fillColor=#FFFFFF;" vertex="1" parent="1">
          <mxGeometry x="565" y="694" width="30" height="56" as="geometry" />
        </mxCell>
        <mxCell id="Vu0no6PkMsiXkVen8RK5-19" value="B" style="shape=umlActor;verticalLabelPosition=bottom;verticalAlign=top;html=1;outlineConnect=0;fillColor=#000000;" vertex="1" parent="1">
          <mxGeometry x="635" y="690" width="31" height="60" as="geometry" />
        </mxCell>
        <mxCell id="Vu0no6PkMsiXkVen8RK5-20" value="D" style="shape=umlActor;verticalLabelPosition=bottom;verticalAlign=top;html=1;outlineConnect=0;fillColor=#000000;" vertex="1" parent="1">
          <mxGeometry x="753.5" y="640" width="24" height="50" as="geometry" />
        </mxCell>
        <mxCell id="Vu0no6PkMsiXkVen8RK5-21" value="&lt;font style=&quot;vertical-align: inherit&quot;&gt;&lt;font style=&quot;vertical-align: inherit&quot;&gt;&lt;b&gt;A`B`C`D谁最先知道自己头上的帽子颜色？&lt;/b&gt;&lt;/font&gt;&lt;/font&gt;" style="rounded=0;whiteSpace=wrap;html=1;fillColor=#FFFFFF;" vertex="1" parent="1">
          <mxGeometry x="555" y="544" width="240" height="36" as="geometry" />
        </mxCell>
        <mxCell id="Vu0no6PkMsiXkVen8RK5-22" value="C" style="shape=umlActor;verticalLabelPosition=bottom;verticalAlign=top;html=1;outlineConnect=0;" vertex="1" parent="1">
          <mxGeometry x="700" y="670" width="29" height="50" as="geometry" />
        </mxCell>
        <mxCell id="Vu0no6PkMsiXkVen8RK5-23" value="" style="endArrow=classic;html=1;exitX=1;exitY=0.25;exitDx=0;exitDy=0;dashed=1;" edge="1" parent="1" source="Vu0no6PkMsiXkVen8RK5-13">
          <mxGeometry width="50" height="50" relative="1" as="geometry">
            <mxPoint x="615" y="644" as="sourcePoint" />
            <mxPoint x="615" y="623" as="targetPoint" />
          </mxGeometry>
        </mxCell>
        <mxCell id="Vu0no6PkMsiXkVen8RK5-24" value="视线方向（只能朝向）" style="edgeLabel;html=1;align=center;verticalAlign=middle;resizable=0;points=[];" vertex="1" connectable="0" parent="Vu0no6PkMsiXkVen8RK5-23">
          <mxGeometry x="0.1445" relative="1" as="geometry">
            <mxPoint x="7" y="-8" as="offset" />
          </mxGeometry>
        </mxCell>
        <mxCell id="Vu0no6PkMsiXkVen8RK5-25" value="" style="verticalLabelPosition=bottom;html=1;verticalAlign=top;align=center;shape=mxgraph.floorplan.table;" vertex="1" parent="1">
          <mxGeometry x="42" y="165" width="28" height="55" as="geometry" />
        </mxCell>
        <mxCell id="zgsh-HRRBRmctU79bV9W-13" value="" style="points=[];aspect=fixed;html=1;align=center;shadow=0;dashed=0;image;image=img/lib/allied_telesis/computer_and_terminals/Personal_Computer.svg;flipV=0;direction=east;flipH=1;rotation=-60;" parent="1" vertex="1">
          <mxGeometry x="43" y="166" width="22" height="29.82" as="geometry" />
        </mxCell>
        <mxCell id="zgsh-HRRBRmctU79bV9W-16" value="" style="points=[];aspect=fixed;html=1;align=center;shadow=0;dashed=0;image;image=img/lib/allied_telesis/computer_and_terminals/Server_Desktop.svg;flipH=1;rotation=-40;" parent="1" vertex="1">
          <mxGeometry x="45.94" y="198.82" width="20" height="25.35" as="geometry" />
        </mxCell>
        <mxCell id="zgsh-HRRBRmctU79bV9W-15" value="" style="points=[];aspect=fixed;html=1;align=center;shadow=0;dashed=0;image;image=img/lib/allied_telesis/computer_and_terminals/Server_Desktop.svg;rotation=-15;" parent="1" vertex="1">
          <mxGeometry x="605" y="303.5" width="20.51" height="26" as="geometry" />
        </mxCell>
        <mxCell id="Aeb1J4XX-xa-QJd8k3CI-42" value="" style="verticalLabelPosition=bottom;html=1;verticalAlign=top;align=center;shape=mxgraph.floorplan.bookcase;fontFamily=Helvetica;fontSize=12;fontColor=#000000;strokeColor=#000000;fillColor=#6600CC;rotation=90;" parent="1" vertex="1">
          <mxGeometry x="563.82" y="339.07" width="112.25" height="17.62" as="geometry" />
        </mxCell>
        <mxCell id="Vu0no6PkMsiXkVen8RK5-27" value="" style="verticalLabelPosition=bottom;html=1;verticalAlign=top;align=center;shape=mxgraph.floorplan.windowGlider;dx=0.25;rotation=-90;" vertex="1" parent="1">
          <mxGeometry x="0.6200000000000001" y="113.22" width="83.88" height="10.98" as="geometry" />
        </mxCell>
        <mxCell id="Vu0no6PkMsiXkVen8RK5-28" value="" style="verticalLabelPosition=bottom;html=1;verticalAlign=top;align=center;shape=mxgraph.floorplan.windowGlider;dx=0.25;" vertex="1" parent="1">
          <mxGeometry x="426" y="50" width="100" height="10" as="geometry" />
        </mxCell>
        <mxCell id="Vu0no6PkMsiXkVen8RK5-29" value="" style="verticalLabelPosition=bottom;html=1;verticalAlign=top;align=center;shape=mxgraph.floorplan.windowGlider;dx=0.25;" vertex="1" parent="1">
          <mxGeometry x="539.18" y="287" width="69.82" height="4" as="geometry" />
        </mxCell>
        <mxCell id="Vu0no6PkMsiXkVen8RK5-30" value="" style="verticalLabelPosition=bottom;html=1;verticalAlign=top;align=center;shape=mxgraph.floorplan.windowGlider;dx=0.25;" vertex="1" parent="1">
          <mxGeometry x="570" y="52" width="190" height="10" as="geometry" />
        </mxCell>
        <mxCell id="Vu0no6PkMsiXkVen8RK5-31" value="" style="verticalLabelPosition=bottom;html=1;verticalAlign=top;align=center;shape=mxgraph.floorplan.window;" vertex="1" parent="1">
          <mxGeometry x="631" y="286" width="79" height="10" as="geometry" />
        </mxCell>
        <mxCell id="Vu0no6PkMsiXkVen8RK5-34" value="" style="verticalLabelPosition=bottom;html=1;verticalAlign=top;align=center;shape=mxgraph.floorplan.printer;strokeColor=#006600;fillColor=#FFFFFF;" vertex="1" parent="1">
          <mxGeometry x="142" y="388" width="40" height="34" as="geometry" />
        </mxCell>
        <mxCell id="Vu0no6PkMsiXkVen8RK5-35" value="" style="verticalLabelPosition=bottom;html=1;verticalAlign=top;align=center;shape=mxgraph.floorplan.range_2;strokeColor=#006600;fillColor=#FFFFFF;rotation=-180;" vertex="1" parent="1">
          <mxGeometry x="632" y="324" width="32" height="57" as="geometry" />
        </mxCell>
        <mxCell id="Vu0no6PkMsiXkVen8RK5-37" value="" style="verticalLabelPosition=bottom;html=1;verticalAlign=top;align=center;shape=mxgraph.floorplan.refrigerator;strokeColor=#006600;fillColor=#FFFFFF;flipV=1;" vertex="1" parent="1">
          <mxGeometry x="740" y="250" width="40" height="38" as="geometry" />
        </mxCell>
        <mxCell id="Vu0no6PkMsiXkVen8RK5-48" value="" style="group" vertex="1" connectable="0" parent="1">
          <mxGeometry x="631" y="310" width="151" height="122" as="geometry" />
        </mxCell>
        <mxCell id="Vu0no6PkMsiXkVen8RK5-42" value="" style="endArrow=none;html=1;" edge="1" parent="Vu0no6PkMsiXkVen8RK5-48">
          <mxGeometry width="50" height="50" relative="1" as="geometry">
            <mxPoint y="110" as="sourcePoint" />
            <mxPoint as="targetPoint" />
          </mxGeometry>
        </mxCell>
        <mxCell id="Vu0no6PkMsiXkVen8RK5-43" value="" style="endArrow=none;html=1;" edge="1" parent="Vu0no6PkMsiXkVen8RK5-48">
          <mxGeometry width="50" height="50" relative="1" as="geometry">
            <mxPoint x="40" as="sourcePoint" />
            <mxPoint as="targetPoint" />
          </mxGeometry>
        </mxCell>
        <mxCell id="Vu0no6PkMsiXkVen8RK5-44" value="" style="endArrow=none;html=1;" edge="1" parent="Vu0no6PkMsiXkVen8RK5-48">
          <mxGeometry width="50" height="50" relative="1" as="geometry">
            <mxPoint x="40" y="80" as="sourcePoint" />
            <mxPoint x="40" as="targetPoint" />
          </mxGeometry>
        </mxCell>
        <mxCell id="Vu0no6PkMsiXkVen8RK5-47" value="" style="endArrow=none;html=1;" edge="1" parent="Vu0no6PkMsiXkVen8RK5-48">
          <mxGeometry width="50" height="50" relative="1" as="geometry">
            <mxPoint x="151" y="80" as="sourcePoint" />
            <mxPoint x="40" y="80" as="targetPoint" />
          </mxGeometry>
        </mxCell>
        <mxCell id="Vu0no6PkMsiXkVen8RK5-55" value="" style="verticalLabelPosition=bottom;html=1;verticalAlign=top;align=center;shape=mxgraph.floorplan.water_cooler;strokeColor=#006600;fillColor=#FFFFFF;" vertex="1" parent="Vu0no6PkMsiXkVen8RK5-48">
          <mxGeometry x="109" y="105" width="13" height="12" as="geometry" />
        </mxCell>
        <mxCell id="Vu0no6PkMsiXkVen8RK5-49" value="" style="verticalLabelPosition=bottom;html=1;verticalAlign=top;align=center;shape=mxgraph.floorplan.shower;strokeColor=#006600;fillColor=#FFFFFF;rotation=-90;" vertex="1" parent="1">
          <mxGeometry x="316.31" y="59.31" width="22.62" height="28" as="geometry" />
        </mxCell>
        <mxCell id="Vu0no6PkMsiXkVen8RK5-50" value="" style="verticalLabelPosition=bottom;html=1;verticalAlign=top;align=center;shape=mxgraph.floorplan.windowGlider;dx=0.25;" vertex="1" parent="1">
          <mxGeometry x="319.31" y="57" width="63.69" height="4" as="geometry" />
        </mxCell>
        <mxCell id="Vu0no6PkMsiXkVen8RK5-51" value="" style="verticalLabelPosition=bottom;html=1;verticalAlign=top;align=center;shape=mxgraph.floorplan.doorLeft;aspect=fixed;strokeColor=#006600;flipH=0;rotation=90;fillColor=#006633;" vertex="1" parent="1">
          <mxGeometry x="715.68" y="289.32" width="22.59" height="24" as="geometry" />
        </mxCell>
        <mxCell id="Vu0no6PkMsiXkVen8RK5-53" value="" style="verticalLabelPosition=bottom;html=1;verticalAlign=top;align=center;shape=mxgraph.floorplan.workstation;strokeColor=#006600;fillColor=#FFFFFF;rotation=-90;" vertex="1" parent="1">
          <mxGeometry x="632" y="407.75" width="22" height="21" as="geometry" />
        </mxCell>
        <mxCell id="Vu0no6PkMsiXkVen8RK5-54" value="" style="verticalLabelPosition=bottom;html=1;verticalAlign=top;align=center;shape=mxgraph.floorplan.office_chair;strokeColor=#006600;fillColor=#FFFFFF;flipV=0;flipH=1;" vertex="1" parent="1">
          <mxGeometry x="763" y="395.5" width="17" height="30" as="geometry" />
        </mxCell>
        <mxCell id="zgsh-HRRBRmctU79bV9W-14" value="" style="points=[];aspect=fixed;html=1;align=center;shadow=0;dashed=0;image;image=img/lib/allied_telesis/computer_and_terminals/Personal_Computer.svg;rotation=0;" parent="1" vertex="1">
          <mxGeometry x="597.18" y="286.25" width="18.82" height="25.5" as="geometry" />
        </mxCell>
      </root>
    </mxGraphModel>
  </diagram>
</mxfile>
